<?xml version="1.0" encoding="UTF-8"?> <!-- Generator: Adobe Illustrator 16.0.3, SVG Export Plug-In . SVG Version: 6.00 Build 0) --> <svg xmlns="http://www.w3.org/2000/svg" xmlns:xlink="http://www.w3.org/1999/xlink" id="Capa_1" x="0px" y="0px" width="512px" height="512px" viewBox="0 0 512 512" xml:space="preserve"> <g> <g> <g> <path d="M454.033,149.112c6.533-8.008,10.459-18.223,10.459-29.34v-9.123c0-25.637-20.856-46.493-46.493-46.493 c-25.636,0-46.492,20.856-46.492,46.493v9.123c0,11.121,3.928,21.34,10.466,29.35c-7.966,2.2-15.547,5.64-22.456,10.186v-7.252 c0-30.174-24.549-54.723-54.723-54.723h-6.457c7.744-9.429,12.402-21.485,12.402-34.61v-8.111C310.737,24.5,286.239,0,256.126,0 c-30.112,0-54.61,24.5-54.61,54.611v8.111c0,13.125,4.657,25.182,12.402,34.609h-6.457c-30.174,0-54.722,24.549-54.722,54.723 v7.425c-6.978-4.63-14.646-8.133-22.712-10.359c6.538-8.01,10.467-18.228,10.467-29.349v-9.123 c0-25.637-20.856-46.493-46.493-46.493c-25.637,0-46.493,20.856-46.493,46.493v9.123c0,11.118,3.926,21.331,10.459,29.34 C24.591,158.317,0,188.926,0,225.187v81.846c0,17.391,14.148,31.539,31.539,31.539h8.389v163.425c0,5.523,4.477,10.002,10,10.002 h43.938c0.021,0,0.041-0.004,0.062-0.004S93.969,512,93.99,512h43.938c5.523,0,10-4.479,10-10.002V338.573h8.534 c17.333,0,31.442-14.057,31.534-31.369c3.242,1.238,6.63,2.173,10.131,2.776v192.018c0,5.523,4.477,10.002,10,10.002h96 c5.521,0,9.999-4.479,9.999-10.002v-96.947c0-5.522-4.478-10-9.999-10c-5.523,0-10,4.478-10,10v86.947h-28V323.305 c0-5.521-4.477-10-10-10c-5.523,0-10,4.479-10,10v168.693h-28V279.555h76v48.163c0,5.522,4.477,10,10,10 c5.521,0,9.999-4.478,9.999-10v-17.737c3.41-0.589,6.716-1.486,9.881-2.678c0.146,17.266,14.232,31.27,31.531,31.27h8.534 v163.425c0,5.523,4.477,10.002,10,10.002h43.938c0.021,0,0.042-0.004,0.062-0.004c0.022,0,0.042,0.004,0.063,0.004h43.939 c5.521,0,9.998-4.479,9.998-10.002V338.573h8.39c17.392,0,31.539-14.148,31.539-31.539v-81.846 C511.999,188.926,487.409,158.317,454.033,149.112z M67.507,110.649c0-14.608,11.885-26.493,26.493-26.493 c14.607,0,26.493,11.885,26.493,26.493v9.123c0,14.608-11.885,26.494-26.493,26.494c-14.608,0-26.493-11.885-26.493-26.494 V110.649z M127.927,491.998H103.99v-154c0-5.521-4.477-9.999-10-9.999s-10,4.478-10,9.999v10.501 c-0.074,0.49-0.125,0.989-0.125,1.5v141.999H59.928V298.992h67.999V491.998z M167.999,307.031 c0.001,6.363-5.175,11.54-11.538,11.54h-8.534v-53.225c0-5.522-4.477-10-10-10c-5.523,0-10,4.479-10,10v13.646h-68v-45.477 c0-5.522-4.477-10-10-10s-10,4.479-10,10v85.055h-8.389c-6.362,0-11.539-5.176-11.539-11.539v-81.845 c0-32.49,26.433-58.923,58.922-58.923h30.154c16.585,0,32.494,7.05,43.647,19.34c0.004,0.005,0.009,0.009,0.014,0.014v70.453 c0,14.679,5.821,28.016,15.262,37.854V307.031L167.999,307.031z M256.126,20c19.085,0,34.612,15.525,34.612,34.61v8.111 c0,19.083-15.527,34.61-34.612,34.61c-19.084,0-34.611-15.526-34.611-34.61v-8.111l0,0C221.515,35.526,237.042,20,256.126,20z M339.513,256.072c0,15.914-10.763,29.35-25.388,33.438V152.055c0.002-5.522-4.478-10-9.999-10c-5.523,0-10,4.479-10,10v107.5 h-76v-107.5c0-5.522-4.477-10-10-10s-10,4.479-10,10v137.454c-14.626-4.088-25.389-17.524-25.389-33.438V152.055 c0-19.146,15.576-34.723,34.722-34.723h38.333v27.328c0,5.521,4.477,10,10,10c5.522,0,10-4.478,10-10v-27.328h39 c19.146,0,34.722,15.576,34.722,34.723V256.072z M391.505,110.649c0-14.608,11.886-26.493,26.493-26.493 c14.608,0,26.494,11.885,26.494,26.493v9.123c0,14.608-11.886,26.494-26.494,26.494c-14.607,0-26.493-11.885-26.493-26.494 V110.649z M452.07,491.998h-23.937V349.999c0-0.511-0.05-1.009-0.124-1.5v-10.501c0-5.521-4.477-9.999-10-9.999 s-10.001,4.478-10.001,9.999v154h-23.938V298.992h67.999V491.998z M480.46,318.572h-8.39v-85.056c0-5.521-4.477-9.999-10-9.999 s-10.001,4.478-10.001,9.999v45.477h-67.999v-13.646c0-5.522-4.478-10-9.999-10c-5.523,0-10,4.479-10,10v53.226h-8.534 c-6.363,0-11.539-5.178-11.539-11.539v-12.842c9.592-9.863,15.516-23.309,15.516-38.121v-70.718 c11.143-12.131,26.938-19.088,43.406-19.088h30.153c32.491,0,58.924,26.433,58.924,58.923v81.845H492 C492,313.395,486.822,318.572,480.46,318.572z"></path> </g> </g> <g> <g> <path d="M311.199,358.649c-1.859-1.87-4.439-2.93-7.07-2.93c-2.629,0-5.209,1.061-7.069,2.93c-1.87,1.86-2.93,4.44-2.93,7.07 s1.06,5.21,2.93,7.07c1.86,1.858,4.44,2.93,7.069,2.93c2.631,0,5.201-1.07,7.07-2.93c1.859-1.86,2.93-4.44,2.93-7.07 S313.058,360.509,311.199,358.649z"></path> </g> </g> <g> <g> <path d="M262.859,174.96c-1.86-1.86-4.43-2.931-7.069-2.931c-2.63,0-5.21,1.069-7.07,2.931c-1.86,1.859-2.93,4.438-2.93,7.07 c0,2.63,1.07,5.21,2.93,7.069c1.86,1.86,4.44,2.931,7.07,2.931c2.639,0,5.209-1.069,7.069-2.931 c1.87-1.859,2.93-4.439,2.93-7.069C265.789,179.398,264.73,176.819,262.859,174.96z"></path> </g> </g> </g> </svg> 